<?xml version="1.0" encoding="utf-8"?>
<!-- Generator: Adobe Illustrator 25.4.1, SVG Export Plug-In . SVG Version: 6.00 Build 0)  -->
<svg version="1.1" id="Calque_2" xmlns="http://www.w3.org/2000/svg" xmlns:xlink="http://www.w3.org/1999/xlink" x="0px" y="0px"
	 viewBox="0 0 757.42 217.7" style="enable-background:new 0 0 757.42 217.7;" xml:space="preserve">
<style type="text/css">
	.st0{fill:none;stroke:#FFFFFF;stroke-width:17;stroke-miterlimit:10;}
</style>
<circle class="st0" cx="347.15" cy="121.75" r="38.36"/>
<circle class="st0" cx="539.22" cy="121.75" r="38.36"/>
<polyline class="st0" points="75.21,83.58 39.69,83.58 39.69,122.5 39.69,160.12 11.34,160.12 "/>
<line class="st0" x1="100.63" y1="122.5" x2="43.28" y2="121.85"/>
<polyline class="st0" points="75.21,54.14 100.63,54.14 100.63,160.12 203.81,160.12 203.81,122.18 139.51,122.5 139.51,83.58 
	195.02,83.58 "/>
<polyline class="st0" points="206.36,18.71 233.01,18.71 233.01,51.59 233.01,160.12 279.21,160.12 "/>
<line class="st0" x1="260.22" y1="51.31" x2="233.01" y2="51.59"/>
<polyline class="st0" points="297.07,83.58 270.43,83.58 270.43,131.24 "/>
<polyline class="st0" points="414.8,131.53 414.8,84.06 468.66,84.06 469.61,160.12 414.8,160.12 414.8,200 393.32,200 "/>
<polyline class="st0" points="581.29,18.71 605.1,18.71 605.1,160.12 739.65,160.12 739.65,121.75 677.29,121.75 677.29,84.06 
	712.06,84.06 "/>
<line class="st0" x1="640.25" y1="75.21" x2="640.25" y2="131.24"/>
</svg>
